<svg width="12" height="14" viewBox="0 0 12 14" fill="none" xmlns="http://www.w3.org/2000/svg">
<path d="M10.4858 1.67773H9.22754V0.314575C9.22754 0.141559 9.08598 0 8.91296 0H7.86438C7.69136 0 7.5498 0.141559 7.5498 0.314575V1.67773H4.19434V0.314575C4.19434 0.141559 4.05278 0 3.87976 0H2.83118C2.65816 0 2.5166 0.141559 2.5166 0.314575V1.67773H1.2583C0.563614 1.67773 0 2.24135 0 2.93604V12.1636C0 12.8583 0.563614 13.4219 1.2583 13.4219H10.4858C11.1805 13.4219 11.7441 12.8583 11.7441 12.1636V2.93604C11.7441 2.24135 11.1805 1.67773 10.4858 1.67773ZM10.3286 12.1636H1.41559C1.32908 12.1636 1.2583 12.0928 1.2583 12.0063V4.19434H10.4858V12.0063C10.4858 12.0928 10.4151 12.1636 10.3286 12.1636Z" fill="#4C3928"/>
</svg>
