<svg width="16" height="13" viewBox="0 0 16 13" fill="none" xmlns="http://www.w3.org/2000/svg">
<path d="M15.5154 4.1276C15.6358 4.02669 15.815 4.12109 15.815 4.2806V10.9375C15.815 11.8001 15.1509 12.5 14.3323 12.5H1.48266C0.664106 12.5 0 11.8001 0 10.9375V4.28385C0 4.12109 0.176065 4.02995 0.29962 4.13086C0.991526 4.69727 1.90892 5.41667 5.05956 7.82878C5.71132 8.33008 6.81095 9.38477 7.9075 9.37825C9.01023 9.38802 10.1315 8.31055 10.7585 7.82878C13.9092 5.41667 14.8235 4.69401 15.5154 4.1276ZM7.9075 8.33333C8.62412 8.34635 9.6558 7.38281 10.1747 6.98568C14.2737 3.85091 14.5856 3.57747 15.5308 2.79622C15.71 2.64974 15.815 2.42188 15.815 2.18099V1.5625C15.815 0.69987 15.1509 0 14.3323 0H1.48266C0.664106 0 0 0.69987 0 1.5625V2.18099C0 2.42188 0.105021 2.64648 0.284176 2.79622C1.22937 3.57422 1.54134 3.85091 5.64027 6.98568C6.1592 7.38281 7.19088 8.34635 7.9075 8.33333Z" fill="#4C3928"/>
</svg>
