<svg width="10" height="13" viewBox="0 0 10 13" fill="none" xmlns="http://www.w3.org/2000/svg">
<path d="M4.48615 12.7377C0.702344 7.38946 0 6.84056 0 4.875C0 2.1826 2.23857 0 5 0C7.76143 0 10 2.1826 10 4.875C10 6.84056 9.29766 7.38946 5.51385 12.7377C5.26555 13.0874 4.73443 13.0874 4.48615 12.7377ZM5 6.90625C6.1506 6.90625 7.08333 5.99683 7.08333 4.875C7.08333 3.75317 6.1506 2.84375 5 2.84375C3.8494 2.84375 2.91667 3.75317 2.91667 4.875C2.91667 5.99683 3.8494 6.90625 5 6.90625Z" fill="#4C3928"/>
</svg>
