<svg width="15" height="15" viewBox="0 0 15 15" fill="none" xmlns="http://www.w3.org/2000/svg">
<path d="M13.8276 10.5995L10.714 9.19326C10.5809 9.13352 10.4331 9.12093 10.2927 9.15739C10.1523 9.19385 10.027 9.27738 9.93555 9.39541L8.55665 11.1708C6.39261 10.0956 4.65105 8.26021 3.63072 5.97963L5.31542 4.52647C5.42764 4.43028 5.50707 4.29818 5.54168 4.15016C5.57629 4.00215 5.5642 3.84628 5.50724 3.70615L4.17282 0.42484C4.11031 0.273785 3.99973 0.150453 3.86017 0.0761123C3.72061 0.00177107 3.5608 -0.0189204 3.40832 0.0176058L0.517086 0.720743C0.370069 0.756521 0.2389 0.843757 0.144988 0.968214C0.0510762 1.09267 -3.38666e-05 1.247 1.68364e-08 1.40601C1.68364e-08 8.92079 5.77968 15 12.8993 15C13.0503 15.0001 13.1968 14.9463 13.3149 14.8473C13.4331 14.7483 13.5159 14.6101 13.5499 14.4551L14.2171 11.4081C14.2515 11.2467 14.2315 11.0776 14.1604 10.93C14.0893 10.7824 13.9716 10.6656 13.8276 10.5995Z" fill="#4C3928"/>
</svg>
