<svg width="13" height="13" viewBox="0 0 13 13" fill="none" xmlns="http://www.w3.org/2000/svg">
<path d="M6.13551 0C2.74614 0 0 2.74614 0 6.13551C0 9.52488 2.74614 12.271 6.13551 12.271C9.52488 12.271 12.271 9.52488 12.271 6.13551C12.271 2.74614 9.52488 0 6.13551 0ZM6.13551 11.0835C3.40174 11.0835 1.18752 8.86928 1.18752 6.13551C1.18752 3.40174 3.40174 1.18752 6.13551 1.18752C8.86928 1.18752 11.0835 3.40174 11.0835 6.13551C11.0835 8.86928 8.86928 11.0835 6.13551 11.0835ZM7.66444 8.50065L5.56402 6.97419C5.48732 6.91729 5.44279 6.82823 5.44279 6.73422V2.67192C5.44279 2.50863 5.57639 2.37504 5.73967 2.37504H6.53135C6.69463 2.37504 6.82823 2.50863 6.82823 2.67192V6.17757L8.48086 7.37993C8.61445 7.47642 8.64167 7.66197 8.54518 7.79556L8.08007 8.43633C7.98358 8.56745 7.79803 8.59714 7.66444 8.50065Z" fill="#4C3928"/>
</svg>
